<svg width="141" height="41" viewBox="0 0 141 41" fill="none" xmlns="http://www.w3.org/2000/svg">
<rect width="41" height="41" fill="white"/>
<path fill-rule="evenodd" clip-rule="evenodd" d="M12.7754 8.22609H15.942V21.6319C16.5297 21.1375 16.8518 20.9211 17.1062 20.6441C20.4859 16.9466 23.9614 13.328 27.1856 9.49802C28.7345 7.65786 30.4026 8.05724 32.5807 8.28372C29.299 11.8872 26.2314 15.2571 23.0001 18.8049C26.4394 23.472 29.7645 27.9835 33.1037 32.5141C30.8954 33.4614 29.3111 33.1157 27.9843 31.3948C25.9335 28.7337 23.916 26.0462 21.8803 23.373C21.4774 22.8442 21.0574 22.3275 20.4849 21.6026C19.0278 23.196 17.6081 24.6712 16.2964 26.2373C15.9995 26.5932 16.0106 27.2626 15.9985 27.7903C15.9642 29.4263 15.9864 31.0622 15.9864 32.8194H12.9127C12.4785 31.5889 12.3412 10.7699 12.7754 8.22609ZM0 41H41V0H0V41Z" fill="#4F4F4F"/>
<path fill-rule="evenodd" clip-rule="evenodd" d="M114.799 26.975C112.223 26.939 110.52 25.109 110.529 22.39C110.539 19.736 112.342 17.807 114.834 17.785C117.274 17.764 119.214 19.768 119.238 22.335C119.263 25.035 117.372 27.012 114.799 26.975ZM110.455 18.072V11C109.672 11.04 109.103 11.069 108.489 11.1V28.611H110.339C110.479 28.021 110.594 27.536 110.722 27C114.287 29.454 117.715 29.358 119.946 26.834C121.921 24.6 121.889 20.205 119.883 17.948C117.642 15.426 114.378 15.379 110.455 18.072Z" fill="#4F4F4F"/>
<path fill-rule="evenodd" clip-rule="evenodd" d="M46.7729 21.327C46.9799 19.274 48.4399 17.927 50.4949 17.791C52.7089 17.644 54.2409 18.855 54.6789 21.097C53.5609 21.576 49.6529 21.7 46.7729 21.327ZM56.7919 23.166C56.7069 20.548 56.4749 18.261 54.2299 16.888C52.1129 15.594 49.8389 15.655 47.6459 16.723C44.2899 18.358 43.8019 22.294 44.9749 25.22C46.6469 29.39 52.4119 30.15 55.8529 26.626C55.5199 26.275 55.1819 25.918 54.8739 25.592C52.3129 27.132 50.1349 27.421 48.5909 26.356C47.5679 25.65 46.5859 24.814 46.8429 23.166H56.7919Z" fill="#4F4F4F"/>
<path fill-rule="evenodd" clip-rule="evenodd" d="M95.0054 26.4813C93.5824 27.1163 92.0854 27.3353 90.7084 26.3553C90.0344 25.8753 89.6874 25.1343 89.9444 24.2873C90.2204 23.3783 90.9634 22.9073 91.8464 22.8643C93.3964 22.7873 94.9524 22.8423 96.6174 22.8423C96.8354 24.7893 96.3764 25.8703 95.0054 26.4813ZM96.1414 16.3113C93.5584 15.6693 91.0054 15.8063 88.7544 17.7983C89.0384 18.2023 89.2934 18.5643 89.5274 18.8973C90.6734 18.5153 91.6754 18.0653 92.7254 17.8563C95.1044 17.3813 96.7084 18.6523 96.6964 21.2473C95.5774 21.2473 94.5664 21.2203 93.5574 21.2553C92.5954 21.2883 91.6154 21.2863 90.6784 21.4743C88.9594 21.8193 87.8154 23.3043 87.8414 24.9613C87.8694 26.6883 89.1464 28.3963 90.7814 28.6143C92.6394 28.8633 94.5314 28.9763 96.1274 27.6283C96.2484 27.5273 96.4494 27.5213 96.6634 27.4553C96.7854 27.8753 96.8964 28.2533 97.0354 28.7303C97.6514 28.6873 98.2204 28.6483 98.8634 28.6033C98.8634 25.5583 98.9154 22.6683 98.8434 19.7823C98.7994 18.0263 97.7864 16.7203 96.1414 16.3113Z" fill="#4F4F4F"/>
<path fill-rule="evenodd" clip-rule="evenodd" d="M76.7407 22.5712C76.6667 25.1842 74.7717 27.0372 72.2377 26.9742C69.5747 26.9072 67.9027 24.9992 68.0207 22.1612C68.1297 19.5442 70.0847 17.6602 72.5607 17.7862C75.0247 17.9122 76.8137 19.9602 76.7407 22.5712ZM72.4807 15.9672C69.2837 15.9462 65.8717 17.9672 65.8027 22.2712C65.7357 26.4142 68.7997 29.0222 72.2117 28.7252C76.1287 29.1232 78.8817 26.0242 78.8817 22.3602C78.8817 18.2422 75.4437 15.9882 72.4807 15.9672Z" fill="#4F4F4F"/>
<path fill-rule="evenodd" clip-rule="evenodd" d="M133.283 26.9632C133.738 26.2992 133.971 25.8952 134.265 25.5422C136.162 23.2682 138.067 21.0012 139.981 18.7422C140.622 17.9842 141.182 17.2272 140.623 16.1322H130.766V17.7492H137.673C137.74 17.8942 137.807 18.0392 137.874 18.1842C137.519 18.6472 137.179 19.1232 136.806 19.5722C134.916 21.8512 133.02 24.1252 131.119 26.3952C130.602 27.0122 130.111 27.6262 130.555 28.6182H141V26.9632H133.283Z" fill="#4F4F4F"/>
<path fill-rule="evenodd" clip-rule="evenodd" d="M60.2236 11.1351V28.6141H62.1436V11.0971C61.7176 11.0571 61.4216 11.0031 61.1266 11.0101C60.8446 11.0161 60.5636 11.0851 60.2236 11.1351Z" fill="#4F4F4F"/>
<path fill-rule="evenodd" clip-rule="evenodd" d="M82.347 28.6387H84.241V11.1257H82.347V28.6387Z" fill="#4F4F4F"/>
<path fill-rule="evenodd" clip-rule="evenodd" d="M124.888 28.7176C125.599 28.6836 126.172 28.6556 126.814 28.6246V16.1416H124.888V28.7176Z" fill="#4F4F4F"/>
<path fill-rule="evenodd" clip-rule="evenodd" d="M125.755 11.0101C124.99 11.0331 124.54 11.4181 124.476 12.1981C124.415 12.9341 124.988 13.6231 125.693 13.6781C126.405 13.7341 127.01 13.1321 127.038 12.3411C127.068 11.4801 126.598 10.9841 125.755 11.0101Z" fill="#4F4F4F"/>
<path fill-rule="evenodd" clip-rule="evenodd" d="M103.655 26.3153C102.984 26.2533 102.386 26.7813 102.318 27.4953C102.242 28.2783 102.822 28.9613 103.558 28.9583C104.228 28.9553 104.771 28.3963 104.795 27.6833C104.821 26.9423 104.351 26.3793 103.655 26.3153Z" fill="#4F4F4F"/>
</svg>
